<svg width="21" height="21" viewBox="0 0 21 21" fill="none" xmlns="http://www.w3.org/2000/svg">
<path d="M10.8256 20.635C12.1961 20.635 13.484 20.3717 14.6894 19.8451C15.8947 19.3184 16.9577 18.587 17.8782 17.6508C18.7988 16.7145 19.5212 15.6361 20.0454 14.4157C20.5697 13.1952 20.8318 11.8953 20.8318 10.516C20.8318 9.13675 20.5697 7.83687 20.0454 6.61639C19.5212 5.39592 18.7967 4.31757 17.872 3.38133C16.9474 2.44507 15.8824 1.71363 14.677 1.187C13.4716 0.660357 12.1837 0.397034 10.8132 0.397034C9.45098 0.397034 8.16719 0.660357 6.96182 1.187C5.75646 1.71363 4.69557 2.44507 3.77915 3.38133C2.86274 4.31757 2.14241 5.39592 1.61816 6.61639C1.09391 7.83687 0.831787 9.13675 0.831787 10.516C0.831787 11.8953 1.09391 13.1952 1.61816 14.4157C2.14241 15.6361 2.8648 16.7145 3.78533 17.6508C4.70588 18.587 5.76884 19.3184 6.9742 19.8451C8.17957 20.3717 9.46336 20.635 10.8256 20.635ZM10.8256 18.7291C9.70278 18.7291 8.65222 18.518 7.67389 18.0959C6.69556 17.6737 5.83693 17.0865 5.09803 16.3341C4.35913 15.5818 3.78122 14.7083 3.3643 13.7135C2.94738 12.7187 2.73891 11.6529 2.73891 10.516C2.73891 9.37917 2.94531 8.31335 3.35811 7.31858C3.7709 6.32382 4.34675 5.45027 5.08566 4.69791C5.82456 3.94558 6.68317 3.35834 7.66149 2.93619C8.63983 2.51405 9.6904 2.30298 10.8132 2.30298C11.9443 2.30298 12.999 2.51405 13.9773 2.93619C14.9556 3.35834 15.8163 3.94558 16.5593 4.69791C17.3024 5.45027 17.8844 6.32382 18.3055 7.31858C18.7265 8.31335 18.9371 9.37917 18.9371 10.516C18.9371 11.6529 18.7286 12.7187 18.3116 13.7135C17.8947 14.7083 17.3168 15.5818 16.5779 16.3341C15.839 17.0865 14.9783 17.6737 13.9959 18.0959C13.0134 18.518 11.9567 18.7291 10.8256 18.7291Z" fill="#007AFF"/>
<path d="M9.15375 15.9454H13.0918C13.3147 15.9454 13.5026 15.8723 13.6553 15.726C13.808 15.5797 13.8844 15.3937 13.8844 15.168C13.8844 14.9507 13.808 14.7668 13.6553 14.6163C13.5026 14.4658 13.3147 14.3906 13.0918 14.3906H12.0021V9.701C12.0021 9.3917 11.9278 9.14509 11.7791 8.96119C11.6305 8.77729 11.42 8.68534 11.1476 8.68534H9.33953C9.11661 8.68534 8.92673 8.76057 8.76987 8.91104C8.613 9.06151 8.53456 9.24541 8.53456 9.46275C8.53456 9.68846 8.613 9.87654 8.76987 10.027C8.92673 10.1775 9.11661 10.2527 9.33953 10.2527H10.2435V14.3906H9.15375C8.93085 14.3906 8.74097 14.4658 8.58409 14.6163C8.42723 14.7668 8.34881 14.9507 8.34881 15.168C8.34881 15.3937 8.42723 15.5797 8.58409 15.726C8.74097 15.8723 8.93085 15.9454 9.15375 15.9454ZM10.7265 7.15558C11.1145 7.15558 11.4406 7.01765 11.7048 6.74178C11.969 6.46592 12.1011 6.13155 12.1011 5.73866C12.1011 5.34578 11.969 5.0114 11.7048 4.73553C11.4406 4.45967 11.1145 4.32175 10.7265 4.32175C10.3385 4.32175 10.0103 4.45967 9.742 4.73553C9.47369 5.0114 9.33953 5.34578 9.33953 5.73866C9.33953 6.13155 9.47369 6.46592 9.742 6.74178C10.0103 7.01765 10.3385 7.15558 10.7265 7.15558Z" fill="#007AFF"/>
</svg>
