<svg width="288" height="78" viewBox="0 0 288 78" fill="none" xmlns="http://www.w3.org/2000/svg">
<path d="M53.84 49.8C51.0133 53.2133 47.68 55.8267 43.84 57.64C40 59.4 35.7067 60.28 30.96 60.28C26.6933 60.28 22.72 59.5067 19.04 57.96C15.4133 56.4133 12.2667 54.3067 9.6 51.64C6.93333 48.9733 4.82667 45.8267 3.28 42.2C1.73333 38.52 0.96 34.5733 0.96 30.36C0.96 26.1467 1.73333 22.2267 3.28 18.6C4.82667 14.92 6.93333 11.7467 9.6 9.08C12.2667 6.41333 15.4133 4.30667 19.04 2.76C22.72 1.21333 26.6933 0.439996 30.96 0.439996C35.5467 0.439996 39.5733 1.24 43.04 2.84C46.56 4.44 49.68 6.76 52.4 9.8L44.8 17.16C43.0933 15.1867 41.12 13.6133 38.88 12.44C36.6933 11.2667 34.08 10.68 31.04 10.68C28.3733 10.68 25.8667 11.16 23.52 12.12C21.1733 13.0267 19.12 14.3333 17.36 16.04C15.6533 17.7467 14.2933 19.8267 13.28 22.28C12.2667 24.68 11.76 27.3733 11.76 30.36C11.76 33.3467 12.2667 36.0667 13.28 38.52C14.2933 40.92 15.6533 42.9733 17.36 44.68C19.12 46.3867 21.1733 47.72 23.52 48.68C25.8667 49.5867 28.3733 50.04 31.04 50.04C34.24 50.04 37.0667 49.4 39.52 48.12C42.0267 46.7867 44.24 44.92 46.16 42.52L53.84 49.8ZM200.326 77.56C197.552 77.56 195.072 77.1867 192.886 76.44C190.752 75.7467 188.886 74.8133 187.286 73.64C185.686 72.52 184.352 71.2667 183.286 69.88C182.219 68.4933 181.446 67.1067 180.966 65.72L190.966 61.72C191.712 63.8 192.939 65.4 194.646 66.52C196.352 67.6933 198.246 68.28 200.326 68.28C203.632 68.28 206.246 67.24 208.166 65.16C210.086 63.1333 211.046 60.28 211.046 56.6V53.88H210.406C209.179 55.5867 207.552 56.9467 205.526 57.96C203.552 58.92 201.206 59.4 198.486 59.4C196.139 59.4 193.846 58.92 191.606 57.96C189.419 57 187.472 55.64 185.766 53.88C184.059 52.0667 182.672 49.9067 181.606 47.4C180.539 44.8933 180.006 42.0933 180.006 39C180.006 35.9067 180.539 33.1067 181.606 30.6C182.672 28.04 184.059 25.88 185.766 24.12C187.472 22.3067 189.419 20.92 191.606 19.96C193.846 19 196.139 18.52 198.486 18.52C201.206 18.52 203.552 19.0267 205.526 20.04C207.552 21 209.179 22.3333 210.406 24.04H211.046V19.8H221.046V56.2C221.046 59.5067 220.539 62.4667 219.526 65.08C218.512 67.7467 217.099 69.9867 215.286 71.8C213.472 73.6667 211.286 75.08 208.726 76.04C206.219 77.0533 203.419 77.56 200.326 77.56ZM200.726 49.96C202.006 49.96 203.259 49.72 204.486 49.24C205.766 48.76 206.886 48.0667 207.846 47.16C208.806 46.2 209.579 45.0533 210.166 43.72C210.752 42.3333 211.046 40.76 211.046 39C211.046 37.24 210.752 35.6667 210.166 34.28C209.579 32.8933 208.806 31.7467 207.846 30.84C206.886 29.88 205.766 29.16 204.486 28.68C203.259 28.2 202.006 27.96 200.726 27.96C199.446 27.96 198.192 28.2 196.966 28.68C195.739 29.16 194.646 29.88 193.686 30.84C192.726 31.8 191.952 32.9733 191.366 34.36C190.779 35.6933 190.486 37.24 190.486 39C190.486 40.76 190.779 42.3333 191.366 43.72C191.952 45.0533 192.726 46.2 193.686 47.16C194.646 48.0667 195.739 48.76 196.966 49.24C198.192 49.72 199.446 49.96 200.726 49.96Z" fill="#4285F4"/>
<path d="M61.23 19.8H71.07V25.24H71.71C72.19 24.28 72.83 23.4 73.63 22.6C74.43 21.8 75.31 21.1067 76.27 20.52C77.2833 19.9333 78.35 19.48 79.47 19.16C80.6433 18.84 81.79 18.68 82.91 18.68C84.2967 18.68 85.47 18.8133 86.43 19.08C87.4433 19.3467 88.2967 19.6933 88.99 20.12L86.19 29.64C85.55 29.32 84.83 29.08 84.03 28.92C83.2833 28.7067 82.35 28.6 81.23 28.6C79.79 28.6 78.4833 28.8933 77.31 29.48C76.1367 30.0133 75.1233 30.7867 74.27 31.8C73.47 32.8133 72.83 34.0133 72.35 35.4C71.9233 36.7333 71.71 38.2 71.71 39.8V59H61.23V19.8Z" fill="#DB4437"/>
<path d="M106.128 57.08L89.6481 19.8H101.568L111.488 43.56H112.048L121.568 19.8H133.248L108.688 76.28H97.4081L106.128 57.08Z" fill="#F4B400"/>
<path d="M150.347 57.08L133.867 19.8H145.787L155.707 43.56H156.267L165.787 19.8H177.467L152.907 76.28H141.627L150.347 57.08ZM229.98 59V1.72H240.46V59H229.98Z" fill="#0F9D58"/>
<path d="M286.553 49.56C284.74 52.76 282.286 55.3467 279.193 57.32C276.153 59.2933 272.42 60.28 267.993 60.28C265.006 60.28 262.233 59.7733 259.673 58.76C257.166 57.6933 254.98 56.2267 253.113 54.36C251.246 52.4933 249.78 50.3067 248.713 47.8C247.7 45.24 247.193 42.44 247.193 39.4C247.193 36.5733 247.7 33.9067 248.713 31.4C249.726 28.84 251.14 26.6267 252.953 24.76C254.766 22.84 256.9 21.32 259.353 20.2C261.86 19.08 264.606 18.52 267.593 18.52C270.74 18.52 273.54 19.0533 275.993 20.12C278.446 21.1333 280.5 22.5733 282.153 24.44C283.806 26.2533 285.06 28.4133 285.913 30.92C286.766 33.4267 287.193 36.1467 287.193 39.08C287.193 39.4533 287.193 39.7733 287.193 40.04C287.14 40.36 287.113 40.6533 287.113 40.92C287.06 41.1867 287.033 41.48 287.033 41.8H257.513C257.726 43.4 258.153 44.7867 258.793 45.96C259.486 47.08 260.313 48.04 261.273 48.84C262.286 49.5867 263.38 50.1467 264.553 50.52C265.726 50.84 266.926 51 268.153 51C270.553 51 272.526 50.4667 274.073 49.4C275.673 48.28 276.926 46.8933 277.833 45.24L286.553 49.56ZM277.033 34.36C276.98 33.6667 276.74 32.8933 276.313 32.04C275.94 31.1867 275.353 30.3867 274.553 29.64C273.806 28.8933 272.846 28.28 271.673 27.8C270.553 27.32 269.193 27.08 267.593 27.08C265.353 27.08 263.38 27.72 261.673 29C259.966 30.28 258.766 32.0667 258.073 34.36H277.033Z" fill="#FF2D55"/>
</svg>
